<?xml version="1.0" standalone="no"?>
<!DOCTYPE svg PUBLIC "-//W3C//DTD SVG 20010904//EN"
 "http://www.w3.org/TR/2001/REC-SVG-20010904/DTD/svg10.dtd">
<svg version="1.0" xmlns="http://www.w3.org/2000/svg"
 width="256.000000pt" height="256.000000pt" viewBox="0 0 256.000000 256.000000"
 preserveAspectRatio="xMidYMid meet">
<metadata>
Created by potrace 1.11, written by Peter Selinger 2001-2013
</metadata>
<g transform="translate(0.000000,256.000000) scale(0.100000,-0.100000)"
fill="#000000" stroke="none">
<path d="M0 1900 c0 -653 0 -660 20 -660 11 0 20 5 20 10 0 6 9 10 19 10 17 0
16 4 -10 29 l-29 29 0 582 0 582 29 29 29 29 541 0 541 0 0 -40 0 -40 -40 0
-40 0 0 -200 0 -200 -40 0 -40 0 0 -40 0 -40 -40 0 -40 0 0 -40 0 -40 -40 0
-40 0 0 -40 0 -40 -80 0 -80 0 0 -80 0 -80 -40 0 -40 0 0 -80 0 -80 -40 0 -40
0 0 -40 0 -40 -40 0 -40 0 0 -40 0 -40 40 0 c40 0 40 0 40 -39 0 -22 -5 -41
-12 -43 -7 -3 34 -50 91 -107 102 -102 103 -102 82 -120 -21 -18 -21 -25 -21
-420 l0 -401 -85 -85 c-47 -47 -87 -85 -90 -85 -3 0 -5 205 -5 456 0 450 0
457 21 475 20 18 20 18 -85 123 -58 58 -110 106 -116 106 -6 0 -26 -16 -45
-35 l-35 -34 0 -433 c0 -422 1 -434 20 -448 11 -8 20 -18 20 -22 0 -4 -58 -8
-130 -8 l-130 0 0 -110 0 -110 1280 0 1280 0 0 1280 0 1280 -1280 0 -1280 0 0
-660z m2511 611 l29 -29 0 -582 0 -582 -29 -29 c-28 -27 -34 -29 -110 -29 -45
0 -81 -2 -81 -5 0 -3 45 -51 101 -106 100 -100 101 -100 80 -118 -21 -18 -21
-25 -21 -420 l0 -401 -85 -85 c-47 -47 -87 -85 -90 -85 -3 0 -5 205 -5 456 0
450 0 457 21 475 20 18 20 18 -85 123 -58 58 -110 106 -116 106 -6 0 -26 -16
-45 -35 l-35 -34 0 -433 c0 -422 1 -434 20 -448 11 -8 20 -18 20 -22 0 -4 -58
-8 -130 -8 -71 0 -130 4 -130 8 0 4 9 14 20 22 20 14 20 26 20 480 0 454 0
466 -20 480 -11 8 -20 18 -20 22 0 4 9 8 20 8 11 0 20 5 20 10 0 6 -82 10
-225 10 -124 0 -225 -2 -225 -5 0 -3 45 -51 101 -106 100 -100 101 -100 80
-118 -21 -18 -21 -25 -21 -420 l0 -401 -85 -85 c-47 -47 -87 -85 -90 -85 -3 0
-5 205 -5 456 0 450 0 457 21 475 20 18 20 18 -85 123 -58 58 -110 106 -116
106 -6 0 -26 -16 -45 -35 l-35 -34 0 -433 c0 -422 1 -434 20 -448 11 -8 20
-18 20 -22 0 -4 -58 -8 -130 -8 -71 0 -130 4 -130 8 0 4 9 14 20 22 20 14 20
26 20 480 0 454 0 466 -20 480 -11 8 -20 18 -20 22 0 4 9 8 20 8 11 0 20 5 20
10 0 6 9 10 20 10 11 0 20 5 20 10 0 6 9 10 20 10 11 0 20 5 20 10 0 6 9 10
20 10 11 0 20 5 20 10 0 6 9 10 20 10 11 0 20 5 20 10 0 6 5 10 10 10 6 0 10
-33 10 -80 0 -44 2 -80 5 -80 3 0 41 36 85 80 44 44 84 80 90 80 6 0 10 56 10
160 l0 160 40 0 40 0 0 120 0 120 200 0 200 0 0 -40 0 -40 -40 0 -40 0 0 -80
0 -80 40 0 40 0 0 40 0 40 40 0 40 0 0 80 0 80 40 0 40 0 0 -40 0 -40 40 0 40
0 0 40 0 40 40 0 40 0 0 40 0 40 -40 0 -40 0 0 40 0 40 -40 0 -40 0 0 -40 0
-40 -40 0 -40 0 0 80 0 80 -40 0 -40 0 0 40 0 40 -40 0 -40 0 0 -80 0 -80 40
0 40 0 0 -40 0 -40 -200 0 -200 0 0 40 0 40 -40 0 -40 0 0 200 0 200 40 0 40
0 0 40 0 40 541 0 541 0 29 -29z m-1431 -931 l0 -80 -40 0 -40 0 0 -80 0 -80
-40 0 -40 0 0 -40 0 -40 -120 0 -120 0 0 40 0 40 40 0 40 0 0 80 0 80 40 0 40
0 0 40 0 40 80 0 80 0 0 40 0 40 40 0 40 0 0 -80z"/>
<path d="M2040 1250 c0 -38 2 -70 5 -70 3 0 21 16 40 35 41 40 42 45 15 45
-12 0 -20 7 -20 16 0 15 -23 44 -34 44 -3 0 -6 -31 -6 -70z"/>
<path d="M220 1250 c0 -38 2 -70 5 -70 7 0 75 68 75 75 0 3 -9 5 -20 5 -12 0
-20 7 -20 16 0 15 -23 44 -34 44 -3 0 -6 -31 -6 -70z"/>
<path d="M0 730 c0 -269 3 -490 6 -490 3 0 12 6 20 14 21 22 21 930 0 952 -8
8 -17 14 -20 14 -3 0 -6 -220 -6 -490z"/>
</g>
</svg>
